# xmcd CD database file
#
# Track frame offsets:
#	150
#	26007
#	41710
#	63612
#
# Disc length: 952 seconds
#
# Revision: 1
# Processed by: cddbd v1.5.1PL0 Copyright (c) Steve Scherf et al.
# Submitted via: CDex 1.51
#
DISCID=3303b604
DTITLE=さくら - はじめまして
DYEAR=2004
DGENRE=Easy Listening
TTITLE0=ハミングバード
TTITLE1=Go For Now!
TTITLE2=めぐり逢うわたしたち
TTITLE3=ボイス絵本〜はじめまして〜
EXTD=YEAR: 2004
EXTT0=
EXTT1=
EXTT2=
EXTT3=
PLAYORDER=
